<?xml version="1.0" encoding="UTF-8"?>
<svg width="72px" height="72px" viewBox="0 0 72 72" version="1.1" xmlns="http://www.w3.org/2000/svg" xmlns:xlink="http://www.w3.org/1999/xlink">
    <!-- Generator: Sketch 49 (51002) - http://www.bohemiancoding.com/sketch -->
    <title>refresh</title>
    <desc>Created with Sketch.</desc>
    <defs></defs>
    <g id="refresh" stroke="none" stroke-width="1" fill="none" fill-rule="evenodd">
        <path d="M14.3329996,57.3173953 C6.61548314,51.7707043 1.57257467,42.6005398 1.57257467,32.2268532 C1.57257467,15.2969627 15.0040322,1.57257467 31.5725747,1.57257467 C48.1411172,1.57257467 61.5725747,15.2969627 61.5725747,32.2268532 C61.5725747,46.0656203 52.5980876,57.762569 40.2716154,61.5725747 L39.0211314,52.6282813 C47.1138686,49.5420281 52.8769225,41.5721354 52.8769225,32.2268532 C52.8769225,20.2041773 43.3386411,10.4578728 31.5725747,10.4578728 C19.8065083,10.4578728 10.2682268,20.2041773 10.2682268,32.2268532 C10.2682268,39.51677 13.7750429,45.9697628 19.1589619,49.9205757 L14.3329996,57.3173953 Z" id="Combined-Shape" fill="#344165" transform="translate(31.572575, 31.572575) rotate(-62.000000) translate(-31.572575, -31.572575) "></path>
        <polygon id="Path-5" fill="#344165" points="62 38 40.5 30 70 15.5"></polygon>
    </g>
</svg>