<?xml version="1.0" encoding="UTF-8"?>
<svg width="72px" height="72px" viewBox="0 0 72 72" version="1.1" xmlns="http://www.w3.org/2000/svg" xmlns:xlink="http://www.w3.org/1999/xlink">
    <!-- Generator: Sketch 49 (51002) - http://www.bohemiancoding.com/sketch -->
    <title>refreshwhite</title>
    <desc>Created with Sketch.</desc>
    <defs></defs>
    <g id="refreshwhite" stroke="none" stroke-width="1" fill="none" fill-rule="evenodd">
        <path d="M46.2104118,58.8806771 C37.6898199,63.090826 27.2255431,63.2383185 18.0661215,58.3681676 C3.11791535,50.4200655 -2.69431265,32.1175825 5.08414688,17.4884278 C12.8626064,2.85927307 31.2862091,-2.55679012 46.2344152,5.39131207 C58.4533213,11.8882197 64.5678475,25.3036062 62.1449547,37.9759244 L53.6605458,34.8809449 C54.7348558,26.286574 50.4034482,17.4564614 42.1520538,13.0691172 C31.5366611,7.42481277 18.4532331,11.2710026 12.9293995,21.6598226 C7.4055659,32.0486426 11.5330901,45.046058 22.1484829,50.6903625 C28.5850973,54.1127711 35.9291022,54.0459329 41.9450599,51.1470089 L46.2104118,58.8806771 Z" id="Combined-Shape" fill="#FFFFFF"></path>
        <polygon id="Path-5" fill="#FFFFFF" points="62.5 38.5 41 30.5 70.5 16"></polygon>
    </g>
</svg>